<svg width="14" height="13" viewBox="0 0 14 13" fill="none" xmlns="http://www.w3.org/2000/svg">
<path fill-rule="evenodd" clip-rule="evenodd" d="M13 1.97199C13.006 2.37665 12.9554 2.88399 12.9107 3.25399C12.8965 3.37622 12.8743 3.49738 12.844 3.61665C13.4147 4.67332 13.6667 5.94465 13.6667 7.33332C13.6667 8.97865 12.8754 10.334 11.6427 11.258C10.4214 12.1733 8.77337 12.6667 7.00004 12.6667C5.22671 12.6667 3.57871 12.1733 2.35737 11.258C1.12471 10.334 0.333374 8.97865 0.333374 7.33332C0.333374 5.94465 0.584707 4.67332 1.15671 3.61665C1.12648 3.49737 1.1042 3.37622 1.09004 3.25399C1.04404 2.88399 0.993374 2.37665 1.00004 1.97199C1.00671 1.51665 1.06671 1.06132 1.13271 0.60932C1.16337 0.399986 1.21137 0.203319 1.43871 0.0793194C1.67071 -0.0473472 1.91471 -0.000680541 2.15537 0.0679861C2.96737 0.297986 3.72871 0.62132 4.44471 1.00799C5.20004 0.781986 6.05204 0.666653 7.00004 0.666653C7.94804 0.666653 8.80004 0.781986 9.55471 1.00865C10.2808 0.611722 11.0486 0.296465 11.844 0.0686527C12.0847 -1.39226e-05 12.3294 -0.0473472 12.5607 0.0793194C12.7874 0.203319 12.836 0.399986 12.8674 0.60932C12.9327 1.06132 12.9934 1.51665 13 1.97199ZM12.3334 7.33332C12.3334 6.20865 12.0747 4.66665 10.6667 4.66665C10.032 4.66665 9.43137 4.83332 8.83137 4.99999C8.23204 5.16665 7.63337 5.33332 7.00004 5.33332C6.36671 5.33332 5.76804 5.16665 5.16871 4.99999C4.56871 4.83332 3.96871 4.66665 3.33337 4.66665C1.92937 4.66665 1.66671 6.21332 1.66671 7.33332C1.66671 8.50932 2.21804 9.48732 3.15737 10.1913C4.10671 10.904 5.46004 11.3333 7.00004 11.3333C8.54004 11.3333 9.89271 10.9033 10.8427 10.1913C11.782 9.48665 12.3334 8.50932 12.3334 7.33332ZM5.66671 7.66665C5.66671 8.58665 5.21871 9.33332 4.66671 9.33332C4.11471 9.33332 3.66671 8.58665 3.66671 7.66665C3.66671 6.74665 4.11471 5.99999 4.66671 5.99999C5.21871 5.99999 5.66671 6.74665 5.66671 7.66665ZM9.33337 9.33332C9.88537 9.33332 10.3334 8.58665 10.3334 7.66665C10.3334 6.74665 9.88537 5.99999 9.33337 5.99999C8.78137 5.99999 8.33337 6.74665 8.33337 7.66665C8.33337 8.58665 8.78137 9.33332 9.33337 9.33332Z" fill="#5D6D74"/>
</svg>
