<svg width="1242" height="746" viewBox="0 0 1242 746" fill="none" xmlns="http://www.w3.org/2000/svg">
<g clip-path="url(#clip0)">
<rect width="1242" height="746" fill="black"/>
<g opacity="0.5">
<path vector-effect="non-scaling-stroke" d="M1448.42 240.782C1418.68 267.762 1385.57 288.937 1350.31 303.529L1350.29 303.539L1350.26 303.545C1336.78 307.297 1327.33 303.169 1318.66 296.287C1315 293.38 1311.47 289.974 1307.84 286.472C1307.18 285.843 1306.53 285.21 1305.87 284.576C1301.52 280.412 1296.97 276.201 1291.79 272.554C1289.07 270.642 1286.33 268.712 1283.56 266.764C1265.08 253.763 1245.42 239.934 1225.03 225.179C1197.86 206.587 1175.77 178.862 1161.49 145.43C1144.97 169.468 1129.03 178.143 1112.17 180.383C1103.68 181.511 1094.97 181.007 1085.87 180.036C1082.63 179.69 1079.34 179.286 1075.99 178.874C1069.92 178.128 1063.65 177.358 1057.12 176.87L1057.11 176.869C962.347 167.713 867.353 188.492 781.543 237.145C695.738 285.795 622.093 360.626 567.905 454.226C525.13 539.744 495.34 616.619 480.6 694.368C465.862 772.107 466.165 850.747 483.606 939.801C486.529 949.944 486.202 956.855 483.907 961.47C481.606 966.097 477.417 968.243 472.974 969.088C468.58 969.924 463.845 969.508 460.194 968.881C468.608 973.25 477.323 981.141 485.873 991.753C496.522 1004.97 506.944 1022.45 516.242 1042.72C534.837 1083.25 548.957 1135 551.375 1186.28C552.346 1206.86 548.209 1215.57 543.594 1219.04C542.131 1220.14 540.645 1220.69 539.302 1220.93C541.725 1221.67 544.938 1222.69 548.663 1223.97C557.047 1226.83 568.027 1230.99 578.398 1236.14C661.454 1277.42 730.053 1355.44 723.388 1455.15L723.387 1455.17L723.385 1455.19C718.202 1499.03 711.025 1542.49 701.884 1585.37C691.812 1633.64 679.164 1688.19 664.339 1749.93C687.641 1692.48 708.716 1642.1 728.266 1598.79C728.266 1598.79 728.266 1598.79 728.267 1598.79L728.666 1599.03L1448.42 240.782ZM1448.42 240.782C1440.24 281.918 1434.01 323.591 1429.75 365.599L1429.74 365.706L1429.77 365.807C1447.39 439.608 1473.75 510.02 1508.02 574.88L1508.03 574.897L1508.04 574.914C1513.71 583.919 1522.44 590.801 1533.68 596.166C1544.91 601.531 1558.69 605.391 1574.47 608.332L1574.48 608.333C1611.57 614.652 1648.96 617.931 1686.39 618.151C1651.18 642.696 1617.12 669.54 1584.36 698.564L1584.35 698.57L1584.35 698.576C1557.21 724.399 1544.39 748.216 1541.5 773.647L1541.5 773.662L1541.5 773.677C1540.22 793.131 1538.09 812.904 1535.94 832.811C1535.79 834.22 1535.63 835.63 1535.48 837.04C1533.18 858.37 1530.94 879.835 1529.78 901.177C1527.46 943.863 1529.49 986.099 1544.16 1025.88L1544.18 1025.92L1544.2 1025.96C1567.73 1066.04 1593.31 1104.31 1620.81 1140.56C1585.92 1127.49 1550.33 1117.31 1514.3 1110.11L1514.1 1110.07L1513.94 1110.22L1513.92 1110.24C1473.53 1146.93 1422.56 1193.25 1385.25 1247.59C1360.62 1283.46 1341.91 1322.87 1336.16 1365.33M1448.42 240.782L1336.16 1365.33M1336.16 1365.33C1324.5 1359.53 1315.07 1355.99 1307.43 1354.07C1297.29 1351.51 1290.3 1351.79 1285.51 1353.39C1280.7 1354.99 1278.12 1357.92 1276.81 1360.61C1276.16 1361.95 1275.83 1363.22 1275.7 1364.22C1275.63 1364.72 1275.62 1365.16 1275.64 1365.52C1275.65 1365.7 1275.66 1365.86 1275.69 1366C1275.72 1366.14 1275.77 1366.29 1275.85 1366.42L1275.91 1366.52L1276 1366.57C1277.63 1367.54 1279.24 1368.54 1280.84 1369.57M1307.2 1355.13C1314.82 1357.05 1324.28 1360.6 1336.01 1366.45C1335.93 1367.05 1335.86 1367.65 1335.78 1368.25C1318.01 1364.29 1299.79 1364.62 1282.21 1369.2C1280.35 1367.98 1278.48 1366.81 1276.58 1365.68C1276.56 1365.62 1276.55 1365.52 1276.55 1365.4C1276.53 1365.13 1276.54 1364.77 1276.6 1364.34C1276.72 1363.47 1277.01 1362.33 1277.6 1361.12C1278.77 1358.71 1281.13 1355.96 1285.72 1354.43C1290.31 1352.89 1297.14 1352.59 1307.2 1355.13Z" stroke="white"/>
<path vector-effect="non-scaling-stroke" opacity="0.65" d="M649.956 920.219L648.847 920.61L649.815 921.164C703.202 951.741 748.818 980.764 780.428 1003.92C796.235 1015.5 808.527 1025.61 816.535 1033.7C820.541 1037.75 823.457 1041.27 825.208 1044.22C826.083 1045.69 826.655 1046.99 826.933 1048.13C827.21 1049.27 827.184 1050.2 826.907 1050.96C826.585 1051.83 825.899 1052.54 824.768 1053.07C823.626 1053.6 822.066 1053.93 820.081 1054.04C816.115 1054.25 810.594 1053.57 803.672 1052.03C789.84 1048.97 770.535 1042.54 747.135 1033.29C700.343 1014.8 637.242 985.047 568.928 948.441C568.928 948.441 568.927 948.441 568.927 948.441L564.887 946.247L564.332 945.946L564.169 946.624L563.945 947.556C562.445 951.565 559.325 954.632 554.663 956.778C549.979 958.934 543.77 960.143 536.19 960.425C521.033 960.988 500.534 957.839 476.123 951.342C427.312 938.351 362.978 912.006 294.701 875.394L294.699 875.393C251.528 852.474 209.561 826.4 169.034 797.318L167.897 796.502L168.272 797.93L194.568 897.872L71.9639 821.212L71.9613 821.21L-32.4842 754.849L-185.181 174.493L35.088 90.8585L35.1148 90.8483L35.1407 90.835C62.9689 76.5002 101.321 72.0951 145.215 77.8362C158.99 79.638 173.308 82.4386 188.011 86.243C201.247 89.6678 214.796 93.9059 228.544 98.9609C249.543 106.682 271.007 116.309 292.53 127.853L292.777 127.389L292.53 127.853C360.813 164.472 416.771 213.394 452.041 262.877C487.334 312.393 501.822 362.333 487.467 401.044C482.729 413.589 475.373 424.431 466.123 432.521L465.673 432.915L466.067 433.3C497.63 464.162 521.725 496.98 536.098 528.554C550.476 560.136 555.104 590.418 547.829 616.241L547.725 616.609L548.016 616.796C605.623 653.815 651.789 699.18 680.271 744.102C708.769 789.05 719.493 833.437 706.457 868.557L706.457 868.558C697.304 893.357 677.329 910.554 649.956 920.219Z" stroke="white"/>
<path vector-effect="non-scaling-stroke" opacity="0.8" d="M219.852 546.898C234.836 555.894 249.404 565.858 263.492 576.746C319.958 620.575 365.618 681.788 395.745 754.047C399.477 783.745 382.008 827.365 365.211 869.306C332.703 950.479 302.712 1025.37 433.798 980.886C433.25 981.261 432.704 981.634 432.157 982.008M219.852 546.898L361.681 1205.62C136.561 1174.47 198.464 1134.55 342.374 1041.76C370.325 1023.74 401.369 1003.72 434.005 981.385C433.385 981.595 432.77 981.803 432.157 982.008M219.852 546.898C205.941 538.493 193.195 531.805 183.043 527.228L219.852 546.898ZM432.157 982.008C400.109 1003.9 369.632 1023.55 342.14 1041.28C326.797 1051.17 312.384 1060.47 299.148 1069.21C280.276 1081.69 263.797 1093.05 250.438 1103.46C237.084 1113.87 226.822 1123.34 220.403 1132.03C213.997 1140.7 211.327 1148.72 213.431 1156.18C215.528 1163.62 222.299 1170.24 234.197 1176.3C255.226 1187 292.719 1196.14 350.588 1204.58C289.144 1198.82 241.057 1194.34 205.317 1193.08C185.164 1192.37 168.918 1192.68 156.407 1194.38C143.91 1196.07 135.068 1199.15 129.789 1204.02C127.14 1206.47 125.382 1209.37 124.518 1212.78C123.654 1216.18 123.692 1220.05 124.579 1224.41C126.348 1233.11 131.517 1243.84 139.831 1256.92C149.501 1272.14 163.479 1290.62 181.47 1312.92C162.134 1290.52 145.88 1272.37 132.124 1258.63C120.402 1246.92 110.472 1238.38 101.977 1233.16C93.4852 1227.93 86.3701 1225.97 80.3133 1227.51C74.2464 1229.05 69.3473 1234.08 65.2226 1242.54C61.1001 1251 57.7224 1262.96 54.7146 1278.46C51.691 1294.05 49.0338 1313.27 46.3742 1336.22C48.1859 1313.48 49.247 1294.38 49.2042 1278.75C49.1614 1263.12 48.0145 1250.91 45.3838 1242.03C42.7473 1233.12 38.5957 1227.47 32.5315 1225.1C26.511 1222.75 18.712 1223.68 8.84084 1227.59C-1.04316 1231.52 -13.0785 1238.46 -27.6092 1248.26C-47.8814 1261.94 -73.0491 1281.19 -104.063 1305.6C-75.6564 1281.7 -54.4453 1262.35 -40.4545 1246.6C-30.1155 1234.97 -23.6695 1225.24 -21.2048 1217.05C-19.9691 1212.94 -19.7244 1209.19 -20.5178 1205.76C-21.3124 1202.32 -23.1341 1199.27 -25.9385 1196.56C-31.5223 1191.16 -41.0682 1187.02 -54.4847 1183.71C-67.9208 1180.39 -85.3153 1177.88 -106.663 1175.77C-140.563 1172.44 -184.476 1170.14 -238.411 1167.31C-247.992 1166.81 -257.889 1166.29 -268.103 1165.75C-238.592 1164.95 -214.606 1163.18 -195.465 1160.49C-173.336 1157.38 -157.653 1153.03 -147.391 1147.5C-137.133 1141.98 -132.189 1135.21 -131.777 1127.2C-131.367 1119.24 -135.456 1110.27 -142.767 1100.43C-157.401 1080.72 -185.317 1056.99 -217.975 1029.89C-220.815 1027.54 -223.692 1025.15 -226.599 1022.75C-256.707 997.807 -290.107 970.141 -320.664 940.166C-298.287 945.255 -282.578 944.513 -271.818 939.318C-266.821 936.998 -262.412 933.159 -259.021 928.178C-255.63 923.197 -253.372 917.242 -252.47 910.899L-252.468 910.889C-246.915 866.613 -254.295 824.811 -263.011 779.532C-264.826 766.208 -265.439 752.683 -264.838 739.192L-264.838 739.185C-263.91 711.881 -255.933 685.579 -242.011 663.936L-242.001 663.92L-241.992 663.903C-241.602 663.182 -241.087 662.603 -240.369 662.204C-239.646 661.803 -238.693 661.571 -237.412 661.589C-234.838 661.624 -231.017 662.663 -225.273 665.207L-225.263 665.211C-193.976 678.151 -165.469 700.761 -136.612 723.65C-135.661 724.405 -134.709 725.159 -133.758 725.914C-103.943 749.549 -73.6516 773.144 -39.5272 786.195L-39.1735 785.247C-41.0079 783.818 -42.8308 782.368 -44.6429 780.898C-66.078 748.525 -84.2545 715.314 -102.296 682.351C-104.934 677.53 -107.57 672.714 -110.213 667.907C-130.933 630.216 -152.071 593.068 -178.316 558.168L-178.369 558.097L-178.437 558.049C-187.368 551.847 -196.856 546.88 -206.719 543.244C-218.837 538.265 -234.157 532.832 -252.919 526.829C-169.312 531.398 -119.151 530.007 -60.8111 493.086C-2.46567 456.162 64.0505 383.707 180.531 246.251C149.791 292.916 125.641 331.091 107.618 362.117C88.6947 394.691 76.5074 419.413 70.5407 437.822C66.985 446.826 65.6736 456.874 66.7694 466.751L66.7724 466.778L66.7777 466.805C68.2448 474.193 72.3371 479.379 78.8985 482.377C85.4252 485.358 94.3965 486.179 105.698 484.93C119.185 484.088 132.622 482.315 145.943 479.621C160.828 476.88 177.673 473.181 196.321 469.046C187.918 475.593 177.851 485.571 172.821 495.979C170.102 501.604 168.817 507.433 170.151 512.949C171.491 518.484 175.429 523.549 182.867 527.709L182.885 527.718L182.903 527.726C193.035 532.295 205.765 538.974 219.663 547.371L219.664 547.372C234.632 556.358 249.183 566.311 263.256 577.187C319.624 620.941 365.211 682.043 395.301 754.174C396.642 764.98 395.16 777.685 391.895 791.545C388.624 805.436 383.572 820.443 377.822 835.799C373.709 846.786 369.235 857.957 364.805 869.018C356.866 888.843 349.067 908.317 343.732 925.752C339.574 939.341 336.891 951.754 336.809 962.187C336.726 972.632 339.252 981.18 345.591 986.892C351.9 992.579 361.883 995.355 376.526 994.575C390.464 993.832 408.699 989.861 432.157 982.008ZM-121.334 705.664C-98.0931 730.628 -74.8782 755.564 -49.6505 776.762C-71.9225 750.964 -91.9743 723.602 -111.967 696.322C-113.261 694.556 -114.555 692.79 -115.849 691.026C-138.307 660.402 -160.87 630.011 -186.624 602.131C-190.095 599.634 -193.967 598.043 -197.989 597.461C-202.026 596.877 -206.124 597.324 -210.017 598.773C-221.122 603.385 -234.361 608.364 -249.571 613.836C-238.681 612.896 -227.731 613.667 -216.999 616.137L-216.916 616.156L-216.842 616.207C-185.269 638.222 -157.388 667.055 -129.887 696.489C-127.033 699.543 -124.184 702.604 -121.334 705.664Z" stroke="white"/>
<path vector-effect="non-scaling-stroke" opacity="0.75" d="M946.712 453.798L946.263 453.73L946.263 453.735C944.398 468.64 945.16 483.847 948.497 498.373C951.833 512.899 957.671 526.421 965.633 538.063L965.635 538.066C979.186 557.554 997.516 564.641 1012.43 566.863C1019.88 567.974 1026.49 567.87 1031.24 567.489C1033.61 567.298 1035.52 567.037 1036.84 566.824C1037.5 566.718 1038.01 566.623 1038.36 566.555C1038.53 566.52 1038.66 566.493 1038.75 566.474C1038.8 566.464 1038.83 566.457 1038.85 566.452L1038.88 566.446L1038.89 566.444L1038.89 566.444C1038.89 566.444 1038.89 566.444 1038.82 565.911L1038.89 566.444L1038.92 566.437L1038.94 566.427L1038.91 566.273C1038.94 566.427 1038.95 566.427 1038.95 566.427L1038.95 566.426L1038.96 566.422L1039 566.406C1039.04 566.391 1039.1 566.369 1039.18 566.34C1039.35 566.282 1039.59 566.198 1039.91 566.092C1040.54 565.88 1041.49 565.58 1042.72 565.235C1045.18 564.544 1048.78 563.666 1053.32 562.926C1062.39 561.445 1075.22 560.513 1090.23 562.709C1120.24 567.099 1158.96 583.997 1193.79 634.087C1228.63 684.188 1242.48 742.914 1247.62 789.135C1250.19 812.243 1250.57 832.218 1250.32 846.413C1250.19 853.511 1249.91 859.163 1249.65 863.039C1249.52 864.977 1249.4 866.471 1249.32 867.479C1249.27 867.984 1249.24 868.366 1249.21 868.623C1249.21 868.687 1249.2 868.743 1249.2 868.791L1041.93 1076.78C1041.88 1076.41 1041.82 1075.93 1041.74 1075.35C1041.52 1073.81 1041.2 1071.55 1040.77 1068.65C1039.93 1062.84 1038.66 1054.47 1036.99 1044.22C1033.66 1023.72 1028.74 995.677 1022.34 965.531C1015.95 935.386 1008.1 903.129 998.91 874.195C989.731 845.284 979.211 819.648 967.473 802.759L967.465 802.745C967.451 802.719 967.43 802.682 967.402 802.632C967.346 802.533 967.263 802.388 967.152 802.199C966.932 801.822 966.601 801.272 966.161 800.578C965.279 799.189 963.956 797.221 962.185 794.897C958.643 790.248 953.307 784.169 946.121 778.439C931.749 766.977 909.986 756.915 880.433 762.483L880.421 762.484C880.399 762.486 880.366 762.488 880.322 762.491C880.233 762.497 880.1 762.504 879.923 762.511C879.569 762.525 879.042 762.537 878.353 762.53C876.975 762.515 874.951 762.42 872.377 762.103C867.229 761.467 859.883 759.939 851.112 756.364C833.572 749.217 810.318 733.882 787.533 701.117C764.802 668.428 762.034 628.708 764.969 597.109C766.436 581.313 769.327 567.561 771.852 557.76C773.114 552.859 774.284 548.947 775.137 546.262C775.564 544.92 775.912 543.884 776.153 543.185C776.219 542.994 776.277 542.829 776.326 542.689C776.367 542.572 776.402 542.473 776.43 542.393L776.462 542.305C776.478 542.259 776.492 542.221 776.502 542.193L776.52 542.143L776.525 542.131L776.526 542.128C776.526 542.128 776.526 542.128 776.112 541.922L776.526 542.128L776.546 542.072L776.556 542.014C779.873 522.434 779.395 502.202 775.16 482.884C770.926 463.568 763.048 445.683 752.138 430.612C733.284 403.501 704.223 390.556 679.931 384.381C667.777 381.291 656.799 379.891 648.86 379.264C644.89 378.95 641.679 378.829 639.459 378.787C638.349 378.766 637.486 378.764 636.901 378.768C636.608 378.77 636.385 378.773 636.234 378.776C636.159 378.777 636.102 378.779 636.063 378.78L636.026 378.781L636.024 378.781L636.019 378.781L636.015 378.781L636.008 378.781L636.005 378.781L635.979 378.78C635.947 378.778 635.898 378.777 635.834 378.774C635.705 378.768 635.513 378.759 635.259 378.745C634.752 378.716 634.001 378.665 633.029 378.579C631.086 378.407 628.259 378.092 624.732 377.523C617.678 376.384 607.826 374.226 596.64 370.152C574.266 362.002 546.583 346.191 525.278 315.554C504.018 284.98 501.33 239.177 503.999 200.902C505.332 181.781 508 164.576 510.334 152.151C511.501 145.939 512.585 140.922 513.376 137.46C513.772 135.73 514.095 134.387 514.318 133.479C514.37 133.27 514.416 133.085 514.456 132.923C514.504 132.731 514.544 132.572 514.576 132.446C514.606 132.33 514.628 132.242 514.643 132.184L514.66 132.118L514.664 132.102L514.665 132.098C514.666 132.098 514.666 132.097 514.233 131.95L514.666 132.097L514.672 132.072L514.677 132.047L514.567 132.023C514.677 132.046 514.677 132.045 514.677 132.044L514.679 132.037L514.684 132.007L514.704 131.89C514.722 131.787 514.749 131.632 514.784 131.429C514.853 131.021 514.956 130.415 515.086 129.621C515.346 128.033 515.717 125.692 516.165 122.675C517.059 116.643 518.256 107.911 519.467 97.1088C521.888 75.5053 524.362 45.6166 524.578 12.4764C525.008 -53.7721 516.412 -133.147 480.187 -185.241C444.02 -237.25 398.934 -274.603 362.899 -298.951C344.88 -311.126 329.12 -320.052 317.864 -325.936C312.235 -328.877 307.732 -331.058 304.636 -332.504C303.087 -333.227 301.89 -333.766 301.08 -334.125C300.675 -334.305 300.366 -334.439 300.159 -334.528C300.126 -334.542 300.096 -334.555 300.069 -334.567L288.323 -394.645C396.701 -378.448 507.656 -340.357 568.817 -252.405C599.425 -208.389 609.32 -148.465 611.554 -89.6009C612.67 -60.1757 611.872 -31.036 610.797 -4.307C610.532 2.28158 610.25 8.72513 609.976 14.9909C609.139 34.133 608.374 51.6158 608.385 66.5049C608.415 106.066 614.755 133.977 621.099 152.011C624.271 161.027 627.443 167.572 629.825 171.868C631.017 174.016 632.011 175.602 632.709 176.653C633.058 177.178 633.333 177.57 633.522 177.832C633.616 177.962 633.689 178.061 633.739 178.127C633.763 178.16 633.783 178.185 633.796 178.202L633.8 178.208C633.803 178.211 633.805 178.214 633.808 178.218C660.54 216.654 695.417 231.203 723.591 236.146C737.679 238.618 750.098 238.69 758.995 238.143C763.444 237.869 767.014 237.441 769.473 237.081C770.703 236.901 771.655 236.738 772.3 236.62C772.623 236.561 772.869 236.513 773.035 236.48C773.118 236.463 773.181 236.45 773.224 236.441L773.254 236.435L773.287 236.434C773.333 236.433 773.4 236.431 773.49 236.429C773.571 236.427 773.67 236.425 773.786 236.423C773.929 236.421 774.097 236.418 774.291 236.416C774.996 236.409 776.037 236.406 777.379 236.425C780.062 236.465 783.948 236.593 788.753 236.95C798.364 237.664 811.648 239.292 826.342 242.948C855.744 250.265 890.717 265.684 913.231 298.06C935.763 330.461 944.026 369.37 946.651 400.206C947.964 415.621 947.866 429.008 947.44 438.541C947.228 443.306 946.933 447.108 946.691 449.716C946.571 451.02 946.464 452.025 946.386 452.704C946.348 453.043 946.317 453.301 946.296 453.473C946.285 453.559 946.277 453.624 946.272 453.667L946.265 453.715L946.264 453.727L946.263 453.73C946.263 453.73 946.263 453.73 946.712 453.798Z" stroke="white"/>
<path vector-effect="non-scaling-stroke" opacity="0.75" d="M1121.43 -445.263C1121.47 -420.607 1118.3 -396.088 1112.03 -372.587L1112.03 -372.565L1112.02 -372.544C1110.47 -368.304 1108.51 -365.237 1106.24 -362.931C1103.98 -360.625 1101.41 -359.1 1098.67 -357.917C1096.36 -356.917 1093.9 -356.155 1091.4 -355.378C1090.95 -355.238 1090.49 -355.098 1090.04 -354.956C1087.05 -354.018 1083.99 -352.988 1080.94 -351.44C1079.32 -350.624 1077.7 -349.798 1076.05 -348.964C1065.07 -343.399 1053.4 -337.478 1041.13 -331.475C1025.24 -323.149 1007.67 -320.522 990.56 -323.911C993.899 -307.193 991.807 -295.817 987.034 -286.065C984.619 -281.131 981.525 -276.626 978.13 -272.071C976.919 -270.446 975.672 -268.817 974.403 -267.16C972.107 -264.161 969.74 -261.071 967.386 -257.738L967.381 -257.731C932.447 -210.07 908.532 -152.314 898.011 -90.187C887.491 -28.0642 890.73 36.2659 907.407 96.4273C942.365 199.155 981.78 262.545 1059.36 303.124C1064.15 304.959 1066.66 307.479 1067.63 310.303C1068.59 313.115 1067.98 316.104 1066.81 318.783C1065.85 320.957 1064.51 322.97 1063.26 324.592C1067.56 321.94 1073 320.146 1079.22 319.188C1087.71 317.882 1097.7 318.125 1108.34 319.9C1129.62 323.45 1153.56 333.142 1173.43 348.95C1181.43 355.319 1183.32 360.485 1183.07 364.16C1183.01 364.914 1182.87 365.596 1182.68 366.204C1183.64 365.281 1184.81 364.179 1186.14 362.964C1189.99 359.427 1195.2 354.925 1200.58 351.08C1222.1 335.693 1245.83 325.302 1268.56 323.367C1291.31 321.43 1313.05 327.966 1330.49 346.411L1330.5 346.422L1330.51 346.434C1345.05 363.814 1358.79 382.134 1371.66 401.312C1371.66 401.312 1371.66 401.313 1371.66 401.314L1371.25 401.593C1385.81 423.067 1401.84 448.017 1419.82 476.533L1121.43 -445.263ZM1121.43 -445.263C1133.83 -427.432 1147.06 -410.444 1161.05 -394.381L1161.12 -394.299L1161.22 -394.254C1194.5 -379.104 1229.43 -369.759 1264.94 -366.506L1264.97 -366.504L1264.99 -366.504C1270.31 -366.542 1275.83 -368.965 1281.58 -373.21C1287.34 -377.457 1293.37 -383.561 1299.72 -391.038L1299.73 -391.043C1314.2 -408.53 1327.68 -427.155 1340.07 -446.792C1337.52 -420.095 1336.16 -393.253 1336.02 -366.381L1336.02 -366.374L1336.02 -366.366C1336.57 -343.237 1341.14 -328.399 1349.65 -318.338L1349.66 -318.327L1349.67 -318.317C1356.46 -311.157 1363.08 -303.435 1369.75 -295.655C1370.22 -295.104 1370.69 -294.554 1371.17 -294.003C1378.31 -285.671 1385.53 -277.315 1393.07 -269.582C1408.14 -254.12 1424.53 -241.099 1444.25 -235.69L1444.3 -235.674L1444.36 -235.673C1466.86 -234.927 1489.37 -235.854 1511.76 -238.449C1495.45 -224.218 1479.97 -208.676 1465.42 -191.93L1465.3 -191.787L1465.3 -191.599L1465.3 -191.577C1465.47 -157.739 1465.68 -115.014 1473.42 -76.9317C1478.51 -51.8666 1486.88 -28.7485 1500.69 -11.4977C1486.73 -1.50686 1481.22 6.19333 1479.46 11.6377C1478.45 14.7681 1478.67 17.1527 1479.25 18.7767C1479.53 19.5847 1479.9 20.202 1480.24 20.6253C1480.42 20.836 1480.59 21.0059 1480.74 21.1281C1480.82 21.189 1480.9 21.2444 1480.99 21.2867C1481.06 21.3236 1481.18 21.3756 1481.33 21.3745L1481.47 21.3735L1481.59 21.301C1482.29 20.8695 1483 20.45 1483.72 20.0425C1482.24 24.1041 1481.01 28.3071 1480.04 32.622L1480.03 32.6354L1480.03 32.6488C1478.31 42.8314 1475.06 53.2814 1471.76 63.9034C1470.41 68.2565 1469.05 72.6384 1467.78 77.0426C1463.42 92.1569 1460.17 107.491 1462.29 122.579L1462.3 122.684L1462.36 122.773C1462.96 123.74 1464.17 124.792 1465.84 125.909C1467.53 127.035 1469.74 128.26 1472.42 129.561C1477.78 132.162 1485.03 135.08 1493.72 138.114C1510.29 143.9 1530.54 149.281 1554.6 154.615C1527.03 156.194 1503.36 157.741 1483.87 159.163C1473.7 159.905 1465.06 160.896 1458.17 162.369C1451.29 163.839 1446.1 165.802 1442.86 168.535L1442.86 168.537C1439.83 171.138 1437.43 173.314 1435.67 175.027C1433.93 176.724 1432.79 178.009 1432.33 178.818C1432.22 179.022 1432.12 179.236 1432.09 179.444C1432.05 179.66 1432.08 179.956 1432.33 180.169C1432.54 180.353 1432.81 180.372 1433.01 180.361C1433.22 180.349 1433.46 180.295 1433.72 180.214C1434.74 179.895 1436.45 179.029 1438.83 177.623C1439.95 176.965 1441.62 176.45 1443.85 176.079C1446.07 175.709 1448.82 175.488 1452.09 175.394C1458.61 175.206 1467.15 175.53 1477.58 176.178C1496.58 177.357 1520.31 178.674 1548.95 179.971C1523.39 181.862 1500.51 183.919 1479.93 186.294C1468.52 187.612 1458.07 189.106 1449.03 191.434C1439.99 193.76 1432.32 196.929 1426.49 201.618L1426.48 201.626L1426.47 201.633C1423.45 204.302 1420.06 207.168 1416.43 210.226C1403.18 221.409 1386.89 235.166 1374.64 251.266C1359.02 271.786 1349.88 296.224 1361.95 324.128C1368.58 347.163 1376.26 369.748 1384.95 391.781C1394.23 415.952 1405.51 443.113 1418.57 473.608L1121.43 -445.263ZM1480.41 11.9437C1482.08 6.78654 1487.4 -0.768058 1501.32 -10.7198C1501.44 -10.5784 1501.55 -10.4373 1501.67 -10.2967C1494.31 -2.11451 1488.4 7.7106 1484.26 18.5944C1483.27 19.1404 1482.28 19.7089 1481.31 20.2997C1481.23 20.2316 1481.13 20.1311 1481.02 19.9945C1480.75 19.663 1480.44 19.1468 1480.19 18.442C1479.69 17.0401 1479.46 14.8812 1480.41 11.9437ZM1485.61 17.8632C1489.67 7.56692 1495.34 -1.73231 1502.32 -9.52336C1508.65 -2.04957 1516.08 4.23183 1524.8 8.97516C1511.33 8.32155 1497.92 11.3702 1485.61 17.8632ZM1502.35 -11.0452C1502.28 -11.1303 1502.21 -11.2156 1502.14 -11.301C1502.57 -11.6017 1503 -11.9046 1503.44 -12.2097C1503.07 -11.8255 1502.71 -11.4373 1502.35 -11.0452ZM1481.44 20.3925C1481.44 20.3951 1481.44 20.3959 1481.44 20.3927L1481.44 20.3925Z" stroke="white"/>
</g>
</g>
<defs>
<clipPath id="clip0">
<rect width="1242" height="746" fill="white"/>
</clipPath>
</defs>
</svg>
