<svg width="14" height="13" viewBox="0 0 14 13" fill="none" xmlns="http://www.w3.org/2000/svg">
<path fill-rule="evenodd" clip-rule="evenodd" d="M8.89937 1.77197C8.59481 1.77185 8.29402 1.83934 8.01871 1.96958C7.7434 2.09983 7.50045 2.28957 7.30738 2.52512C7.11431 2.76067 6.97595 3.03614 6.90228 3.33166C6.82861 3.62717 6.82147 3.93536 6.88137 4.23397C6.902 4.33744 6.89778 4.44432 6.86905 4.54584C6.84032 4.64735 6.78791 4.7406 6.71613 4.81791C6.64435 4.89523 6.55524 4.9544 6.45613 4.99057C6.35703 5.02674 6.25075 5.03888 6.14604 5.02597C4.71253 4.84988 3.36119 4.26061 2.25671 3.32997C2.27737 3.73131 2.41671 4.15797 2.71871 4.60464L3.17137 5.27397L2.42804 5.59064L2.28471 5.65197C2.39137 5.77397 2.51937 5.89864 2.66271 6.02197C2.85432 6.18598 3.05702 6.33656 3.26937 6.47264L3.27671 6.47731H3.27737L4.30937 7.10331L3.22937 7.64331C3.17604 7.66997 3.12271 7.69397 3.06937 7.71531C3.3016 7.90827 3.55743 8.07091 3.83071 8.19931L4.75737 8.63731L3.98137 9.30664C3.55804 9.67197 3.13204 9.94464 2.57937 10.0886C3.427 10.5401 4.373 10.7753 5.33337 10.7733C8.53737 10.7733 11.1174 8.21664 11.1174 5.08397V4.73731L11.4007 4.53797C11.8434 4.22731 12.156 3.80731 12.38 3.32664H10.94L10.7587 2.94664C10.5917 2.59509 10.3285 2.29811 9.99946 2.09018C9.67046 1.88226 9.28923 1.77192 8.90004 1.77197H8.89937ZM1.37937 6.63864C1.31646 6.71069 1.26979 6.79543 1.24253 6.88711C1.21527 6.97879 1.20805 7.07526 1.22137 7.16997C1.29671 7.70397 1.61604 8.16397 1.96937 8.51531C2.06537 8.61064 2.16804 8.70197 2.27604 8.78931L2.22604 8.80264C1.90537 8.88264 1.47271 8.89931 0.75204 8.82931C0.615946 8.81595 0.479038 8.84477 0.359877 8.91186C0.240715 8.97894 0.145067 9.08105 0.0858989 9.20433C0.0267311 9.32762 0.00690666 9.46612 0.0291134 9.60105C0.0513201 9.73598 0.114484 9.86082 0.21004 9.95864C0.877221 10.6406 1.67424 11.182 2.55405 11.5509C3.43387 11.9198 4.37867 12.1088 5.33271 12.1066C9.14137 12.1066 12.2654 9.14931 12.442 5.41731C13.302 4.69531 13.732 3.71731 13.964 2.82864C13.9898 2.73001 13.9927 2.62677 13.9723 2.52688C13.952 2.42698 13.909 2.33308 13.8466 2.2524C13.7843 2.17172 13.7043 2.10642 13.6128 2.0615C13.5213 2.01658 13.4207 1.99325 13.3187 1.99331H11.75C11.3663 1.39752 10.8056 0.936934 10.1466 0.676263C9.48767 0.415591 8.76359 0.367939 8.07614 0.540003C7.38869 0.712067 6.77244 1.0952 6.31396 1.63556C5.85549 2.17592 5.57784 2.84635 5.52004 3.55264C4.29114 3.23274 3.19159 2.53984 2.37271 1.56931C2.30019 1.48356 2.20718 1.41753 2.10232 1.37733C1.99746 1.33713 1.88414 1.32407 1.77289 1.33937C1.66163 1.35466 1.55605 1.39781 1.46592 1.46482C1.3758 1.53182 1.30406 1.62051 1.25737 1.72264C0.853373 2.60397 0.77604 3.61997 1.22671 4.65331L1.07071 4.71997C0.921423 4.78359 0.800465 4.89946 0.730509 5.04588C0.660552 5.1923 0.646401 5.3592 0.690707 5.51531C0.814707 5.94997 1.09337 6.33397 1.37871 6.63864H1.37937Z" fill="#5D6D74"/>
</svg>
