<svg width="13" height="13" viewBox="0 0 13 13" fill="none" xmlns="http://www.w3.org/2000/svg">
<path d="M11.1922 7.35714H6.90646V11.6429C6.90646 12.1143 6.52075 12.5 6.04932 12.5C5.57789 12.5 5.19217 12.1143 5.19217 11.6429V7.35714H0.906459C0.435031 7.35714 0.0493164 6.97143 0.0493164 6.5C0.0493164 6.02857 0.435031 5.64286 0.906459 5.64286H5.19217V1.35714C5.19217 0.885714 5.57789 0.5 6.04932 0.5C6.52075 0.5 6.90646 0.885714 6.90646 1.35714V5.64286H11.1922C11.6636 5.64286 12.0493 6.02857 12.0493 6.5C12.0493 6.97143 11.6636 7.35714 11.1922 7.35714Z" fill="white"/>
</svg>