<svg width="14" height="14" viewBox="0 0 14 14" fill="none" xmlns="http://www.w3.org/2000/svg">
<path d="M12 12V10C12 9.44771 12.4477 9 13 9C13.5523 9 14 9.44771 14 10V12C14 13.1046 13.1046 14 12 14H2C0.89543 14 0 13.1046 0 12V2C0 0.89543 0.89543 0 2 0H4C4.55228 0 5 0.447715 5 1C5 1.55228 4.55228 2 4 2H2V12H12Z" fill="#B2B5B2"/>
<path fill-rule="evenodd" clip-rule="evenodd" d="M10.5858 2H8.00004C7.44776 2 7.00004 1.55228 7.00004 1C7.00004 0.447715 7.44776 0 8.00004 0H13C13.2762 0 13.5262 0.111929 13.7071 0.292893C13.8881 0.473858 14 0.723858 14 1V6C14 6.55228 13.5523 7 13 7C12.4478 7 12 6.55228 12 6V3.41421L5.7574 9.65685C5.36688 10.0474 4.73371 10.0474 4.34319 9.65685C3.95266 9.26633 3.95266 8.63316 4.34319 8.24264L10.5858 2Z" fill="#B2B5B2"/>
</svg>
