<svg width="14" height="15" viewBox="0 0 14 15" fill="none" xmlns="http://www.w3.org/2000/svg">
    <circle cx="7" cy="7.5" r="6" stroke="#B2B5B2" stroke-width="2"/>
    <rect x="6" y="9.5" width="2" height="2" rx="1" fill="#B2B5B2"/>
    <path d="M6.38526 5.43278C6.38526 5.13364 6.64362 4.88526 6.96968 4.88526C7.29476 4.88526 7.55296 5.13377 7.55296 5.43278C7.55635 5.65507 7.52747 5.69852 7.18716 5.94691L7.16039 5.96644C6.38594 6.53156 6.11124 7.00234 6.15311 7.82328L6.15205 7.92076C6.15205 8.37398 6.51811 8.74004 6.96968 8.74004C7.42124 8.74004 7.78731 8.37398 7.78731 7.92241V7.78164C7.77652 7.55395 7.79194 7.52993 8.12429 7.28742L8.15119 7.26779C8.91824 6.70793 9.20086 6.23722 9.18812 5.42004C9.18823 4.22356 8.19123 3.25 6.96968 3.25C5.74572 3.25 4.75 4.22482 4.75 5.43278C4.75 5.88435 5.11607 6.25041 5.56763 6.25041C6.0192 6.25041 6.38526 5.88435 6.38526 5.43278Z" fill="#B2B5B2"/>
</svg>
